<?xml version="1.0" encoding="UTF-8" standalone="no"?>
<!-- Created with Inkscape (http://www.inkscape.org/) -->

<svg
   version="1.1"
   id="svg6441"
   xml:space="preserve"
   width="682.66669"
   height="682.66669"
   viewBox="0 0 682.66669 682.66669"
   xmlns="http://www.w3.org/2000/svg"
   xmlns:svg="http://www.w3.org/2000/svg"><defs
     id="defs6445"><clipPath
       clipPathUnits="userSpaceOnUse"
       id="clipPath6455"><path
         d="M 0,512 H 512 V 0 H 0 Z"
         id="path6453" /></clipPath></defs><g
     id="g6447"
     transform="matrix(1.3333333,0,0,-1.3333333,0,682.66667)"><g
       id="g6449"><g
         id="g6451"
         clip-path="url(#clipPath6455)"><g
           id="g6457"
           transform="translate(256,7.5)"><path
             d="M 0,0 C 45.271,0 87.711,12.111 124.268,33.264 V 44.097 Z"
             style="fill:#622876;fill-opacity:1;fill-rule:nonzero;stroke:none"
             id="path6459" /></g><g
           id="g6461"
           transform="translate(256,256)"><path
             d="M 0,0 -58.242,-146.576 0,-248.5 c 46.17,0 88.985,16.301 124.268,44.097 V 0 Z"
             style="fill:#962b7c;fill-opacity:1;fill-rule:nonzero;stroke:none"
             id="path6463" /></g><g
           id="g6465"
           transform="translate(375.9336,48.2695)"><path
             d="m 0,0 4.334,-7.506 c 37.709,21.819 69.15,53.26 90.969,90.969 v 81.306 z"
             style="fill:#2d2570;fill-opacity:1;fill-rule:nonzero;stroke:none"
             id="path6467" /></g><g
           id="g6469"
           transform="translate(471.2363,213.0381)"><path
             d="M 0,0 V 42.962 H -215.236 L -95.303,-164.769 C -45.949,-127.838 -10.541,-68.782 0,0"
             style="fill:#622876;fill-opacity:1;fill-rule:nonzero;stroke:none"
             id="path6471" /></g><g
           id="g6473"
           transform="translate(473.9561,273.4541)"><path
             d="m 0,0 -23.088,-129.962 20.368,-11.76 c 21.152,36.557 33.264,78.996 33.264,124.268 z"
             style="fill:#0556b2;fill-opacity:1;fill-rule:nonzero;stroke:none"
             id="path6475" /></g><g
           id="g6477"
           transform="translate(473.9561,273.4541)"><path
             d="M 0,0 -71.38,40.788 -217.956,-17.454 -23.088,-129.962 C -7.979,-96.181 0.544,-57.95 0.544,-17.454 0.544,-11.585 0.352,-5.768 0,0"
             style="fill:#077ccc;fill-opacity:1;fill-rule:nonzero;stroke:none"
             id="path6479" /></g><g
           id="g6481"
           transform="translate(471.2363,380.2676)"><path
             d="M 0,0 H -25.983 L 3.264,-124.268 h 30 C 33.264,-78.996 21.151,-36.557 0,0"
             style="fill:#077ccc;fill-opacity:1;fill-rule:nonzero;stroke:none"
             id="path6483" /></g><g
           id="g6485"
           transform="translate(285.1211,380.2676)"><path
             d="m 0,0 -29.121,-124.268 h 218.5 c 0,45.272 -10.65,87.711 -29.247,124.268 z"
             style="fill:#09a1e5;fill-opacity:1;fill-rule:nonzero;stroke:none"
             id="path6487" /></g><g
           id="g6489"
           transform="translate(380.2676,471.2363)"><path
             d="m 0,0 h -15.002 l 85.603,-102.729 20.368,11.76 C 69.15,-53.26 37.709,-21.818 0,0"
             style="fill:#2897b1;fill-opacity:1;fill-rule:nonzero;stroke:none"
             id="path6491" /></g><g
           id="g6493"
           transform="translate(365.2656,471.2363)"><path
             d="m 0,0 h -80.145 l -29.121,-215.236 194.869,112.507 C 66.398,-59.791 36.547,-24.049 0,0"
             style="fill:#49b296;fill-opacity:1;fill-rule:nonzero;stroke:none"
             id="path6495" /></g><g
           id="g6497"
           transform="translate(256,504.5)"><path
             d="m 0,0 119.934,-40.77 4.334,7.506 C 87.711,-12.111 45.271,0 0,0"
             style="fill:#49b296;fill-opacity:1;fill-rule:nonzero;stroke:none"
             id="path6499" /></g><g
           id="g6501"
           transform="translate(197.7578,402.5762)"><path
             d="m 0,0 58.242,-146.576 119.934,207.73 c -34.431,25.764 -75.638,40.77 -119.934,40.77 z"
             style="fill:#89c247;fill-opacity:1;fill-rule:nonzero;stroke:none"
             id="path6503" /></g><g
           id="g6505"
           transform="translate(131.7334,40.7627)"><path
             d="m 0,0 c 36.556,-21.15 78.995,-33.263 124.267,-33.263 v 248.5 H 0 Z"
             style="fill:#cb2e81;fill-opacity:1;fill-rule:nonzero;stroke:none"
             id="path6507" /></g><g
           id="g6509"
           transform="translate(40.7627,131.7334)"><path
             d="M 0,0 C 21.819,-37.71 53.261,-69.151 90.971,-90.971 L 215.237,124.267 H 0 Z"
             style="fill:#ff3187;fill-opacity:1;fill-rule:nonzero;stroke:none"
             id="path6511" /></g><g
           id="g6513"
           transform="translate(7.5,256)"><path
             d="M 0,0 C 0,-45.271 12.112,-87.711 33.263,-124.267 L 248.5,0 101.924,58.242 Z"
             style="fill:#ff5178;fill-opacity:1;fill-rule:nonzero;stroke:none"
             id="path6515" /></g><g
           id="g6517"
           transform="translate(40.7627,380.2666)"><path
             d="m 0,0 c -21.15,-36.556 -33.263,-78.995 -33.263,-124.267 h 248.5 L 186.116,0 Z"
             style="fill:#ff9259;fill-opacity:1;fill-rule:nonzero;stroke:none"
             id="path6519" /></g><g
           id="g6521"
           transform="translate(131.7334,471.2373)"><path
             d="M 0,0 C -37.71,-21.819 -69.151,-53.261 -90.971,-90.971 L 124.267,-215.237 95.146,0 Z"
             style="fill:#ffb24a;fill-opacity:1;fill-rule:nonzero;stroke:none"
             id="path6523" /></g><g
           id="g6525"
           transform="translate(256,504.5)"><path
             d="M 0,0 C -45.271,0 -87.711,-12.112 -124.267,-33.263 L 0,-248.5 Z"
             style="fill:#ffd23b;fill-opacity:1;fill-rule:nonzero;stroke:none"
             id="path6527" /></g><g
           id="g6529"
           transform="translate(256,396)"><path
             d="m 0,0 v -280 c 77.32,0 140,62.68 140,140 C 140,-62.68 77.32,0 0,0"
             style="fill:#fff0be;fill-opacity:1;fill-rule:nonzero;stroke:none"
             id="path6531" /></g><g
           id="g6533"
           transform="translate(366,256)"><path
             d="m 0,0 c 0,77.32 -49.249,140 -110,140 -77.32,0 -140,-62.68 -140,-140 0,-77.32 62.68,-140 140,-140 60.751,0 110,62.68 110,140"
             style="fill:#ffffff;fill-opacity:1;fill-rule:nonzero;stroke:none"
             id="path6535" /></g><g
           id="g6537"
           transform="translate(504.5,256)"><path
             d="m 0,0 c 0,-137.243 -111.257,-248.5 -248.5,-248.5 -137.243,0 -248.5,111.257 -248.5,248.5 0,137.243 111.257,248.5 248.5,248.5 C -111.257,248.5 0,137.243 0,0 Z"
             style="fill:none;stroke:#000000;stroke-width:15;stroke-linecap:round;stroke-linejoin:round;stroke-miterlimit:10;stroke-dasharray:none;stroke-opacity:1"
             id="path6539" /></g><g
           id="g6541"
           transform="translate(396,256)"><path
             d="m 0,0 c 0,-77.32 -62.68,-140 -140,-140 -77.32,0 -140,62.68 -140,140 0,77.32 62.68,140 140,140 C -62.68,140 0,77.32 0,0 Z"
             style="fill:none;stroke:#000000;stroke-width:15;stroke-linecap:round;stroke-linejoin:round;stroke-miterlimit:10;stroke-dasharray:none;stroke-opacity:1"
             id="path6543" /></g><g
           id="g6545"
           transform="translate(256,116)"><path
             d="M 0,0 V -108.5"
             style="fill:none;stroke:#000000;stroke-width:15;stroke-linecap:round;stroke-linejoin:round;stroke-miterlimit:10;stroke-dasharray:none;stroke-opacity:1"
             id="path6547" /></g><g
           id="g6549"
           transform="translate(326,134.7568)"><path
             d="M 0,0 54.25,-93.964"
             style="fill:none;stroke:#000000;stroke-width:15;stroke-linecap:round;stroke-linejoin:round;stroke-miterlimit:10;stroke-dasharray:none;stroke-opacity:1"
             id="path6551" /></g><g
           id="g6553"
           transform="translate(377.2432,186)"><path
             d="M 0,0 93.964,-54.25"
             style="fill:none;stroke:#000000;stroke-width:15;stroke-linecap:round;stroke-linejoin:round;stroke-miterlimit:10;stroke-dasharray:none;stroke-opacity:1"
             id="path6555" /></g><g
           id="g6557"
           transform="translate(396,256)"><path
             d="M 0,0 H 108.5"
             style="fill:none;stroke:#000000;stroke-width:15;stroke-linecap:round;stroke-linejoin:round;stroke-miterlimit:10;stroke-dasharray:none;stroke-opacity:1"
             id="path6559" /></g><g
           id="g6561"
           transform="translate(377.2432,326)"><path
             d="M 0,0 93.964,54.25"
             style="fill:none;stroke:#000000;stroke-width:15;stroke-linecap:round;stroke-linejoin:round;stroke-miterlimit:10;stroke-dasharray:none;stroke-opacity:1"
             id="path6563" /></g><g
           id="g6565"
           transform="translate(326,377.2432)"><path
             d="M 0,0 54.25,93.964"
             style="fill:none;stroke:#000000;stroke-width:15;stroke-linecap:round;stroke-linejoin:round;stroke-miterlimit:10;stroke-dasharray:none;stroke-opacity:1"
             id="path6567" /></g><g
           id="g6569"
           transform="translate(256,396)"><path
             d="M 0,0 V 108.5"
             style="fill:none;stroke:#000000;stroke-width:15;stroke-linecap:round;stroke-linejoin:round;stroke-miterlimit:10;stroke-dasharray:none;stroke-opacity:1"
             id="path6571" /></g><g
           id="g6573"
           transform="translate(186,377.2432)"><path
             d="M 0,0 -54.25,93.964"
             style="fill:none;stroke:#000000;stroke-width:15;stroke-linecap:round;stroke-linejoin:round;stroke-miterlimit:10;stroke-dasharray:none;stroke-opacity:1"
             id="path6575" /></g><g
           id="g6577"
           transform="translate(134.7568,326)"><path
             d="M 0,0 -93.964,54.25"
             style="fill:none;stroke:#000000;stroke-width:15;stroke-linecap:round;stroke-linejoin:round;stroke-miterlimit:10;stroke-dasharray:none;stroke-opacity:1"
             id="path6579" /></g><g
           id="g6581"
           transform="translate(116,256)"><path
             d="M 0,0 H -108.5"
             style="fill:none;stroke:#000000;stroke-width:15;stroke-linecap:round;stroke-linejoin:round;stroke-miterlimit:10;stroke-dasharray:none;stroke-opacity:1"
             id="path6583" /></g><g
           id="g6585"
           transform="translate(134.7568,186)"><path
             d="M 0,0 -93.964,-54.25"
             style="fill:none;stroke:#000000;stroke-width:15;stroke-linecap:round;stroke-linejoin:round;stroke-miterlimit:10;stroke-dasharray:none;stroke-opacity:1"
             id="path6587" /></g><g
           id="g6589"
           transform="translate(186,134.7568)"><path
             d="M 0,0 -54.25,-93.964"
             style="fill:none;stroke:#000000;stroke-width:15;stroke-linecap:round;stroke-linejoin:round;stroke-miterlimit:10;stroke-dasharray:none;stroke-opacity:1"
             id="path6591" /></g><g
           id="g6593"
           transform="translate(301.6641,282.3984)"><path
             d="m 0,0 -45.664,53.602 v -152.5 c 33.137,0 60,26.863 60,60 C 14.336,-24.053 8.933,-10.476 0,0"
             style="fill:#ff3187;fill-opacity:1;fill-rule:nonzero;stroke:none"
             id="path6595" /></g><g
           id="g6597"
           transform="translate(286,243.5)"><path
             d="M 0,0 C 0,14.846 -2.702,28.423 -7.168,38.898 L -30,92.5 -75.664,38.898 C -84.597,28.423 -90,14.846 -90,0 c 0,-33.137 26.863,-60 60,-60 16.568,0 30,26.863 30,60"
             style="fill:#ff5178;fill-opacity:1;fill-rule:nonzero;stroke:none"
             id="path6599" /></g><g
           id="g6601"
           transform="translate(210.3359,282.3984)"><path
             d="m 0,0 c -8.933,-10.476 -14.336,-24.053 -14.336,-38.898 0,-33.137 26.863,-60 60,-60 33.137,0 60,26.863 60,60 0,14.845 -5.403,28.422 -14.336,38.898 L 45.664,53.602 19.455,22.837"
             style="fill:none;stroke:#000000;stroke-width:15;stroke-linecap:round;stroke-linejoin:round;stroke-miterlimit:10;stroke-dasharray:none;stroke-opacity:1"
             id="path6603" /></g></g></g></g></svg>
